/* XPM */
static const char * coca_xpm[] = {
"16 16 7 1",
" 	g None",
".	g #000000",
"+	g #FFFFFF",
"@	g #323232",
"#	g #C8C8C8",
"$	g #969696",
"%	g #646464",
"................",
".++++++++++++++.",
".+@@@###$$$@@@+.",
".+@@@###$$$@@@+.",
".+@@@###$$$@@@+.",
".+$$$%%%+++###+.",
".+$$$%%%+++###+.",
".+$$$%%%+++###+.",
".++++$$$@@@++++.",
".++++$$$@@@++++.",
".++++$$$@@@++++.",
".+$$$###+++$$$+.",
".+$$$###+++$$$+.",
".+$$$###+++$$$+.",
".++++++++++++++.",
"................"};
