/* XPM */
static const char * component_xpm[] = {
"16 16 6 1",
" 	g None",
".	g #000000",
"+	g #323232",
"@	g #646464",
"#	g #969696",
"$	g #C8C8C8",
"                ",
"                ",
"                ",
"     .+@#$      ",
"    . .+@#$     ",
"   .   .+@#$    ",
"  .     .+@#$   ",
" .       .+@#$  ",
".         .+@#$ ",
" .       .+@#$  ",
"  .     .+@#$   ",
"   .   .+@#$    ",
"    . .+@#$     ",
"     .+@#$      ",
"                ",
"                "};
