/* XPM */
static const char * composite_xpm[] = {
"16 16 6 1",
" 	g None",
".	g #C8C8C8",
"+	g #969696",
"@	g #646464",
"#	g #323232",
"$	g #000000",
"    ............",
"   ++++++++++++.",
"  @@@@@@@@@@@@+.",
" ############@+.",
"$$$$$$$$$$$$#@+.",
"$          $#@+.",
"$          $#@+.",
"$          $#@+.",
"$          $#@+.",
"$          $#@+.",
"$          $#@+.",
"$          $#@+.",
"$          $#@+ ",
"$          $#@  ",
"$          $#   ",
"$$$$$$$$$$$$    "};
